<svg enable-background="new 0 0 512 512" viewBox="0 0 512 512" xmlns="http://www.w3.org/2000/svg" xmlns:xlink="http://www.w3.org/1999/xlink"><path d="m473.7 88.3h-435.4c-21.1 0-38.3 17.1-38.3 38.3v258.8c0 21.2 17.2 38.3 38.3 38.3h435.3c21.2 0 38.3-17.2 38.3-38.3v-258.8c.1-21.2-17.1-38.3-38.2-38.3z" fill="#f5f5f5"/><path d="m2.1 114.1h507.8c-5.2-15-19.5-25.8-36.2-25.8h-435.4c-16.7 0-31 10.8-36.2 25.8z" fill="#ff4b55"/><path d="m0 191.5h512v25.8h-512z" fill="#ff4b55"/><path d="m0 139.9h512v25.8h-512z" fill="#ff4b55"/><path d="m0 260.1c0 4.9 4 8.8 8.8 8.8h503.2v-25.8h-512z" fill="#ff4b55"/><path d="m0 346.3h512v25.8h-512z" fill="#ff4b55"/><path d="m509.9 397.9h-507.8c5.2 15 19.5 25.8 36.2 25.8h435.3c16.8 0 31.1-10.8 36.3-25.8z" fill="#ff4b55"/><path d="m0 294.7h512v25.8h-512z" fill="#ff4b55"/><path d="m8.8 268.9h220.7c4.9 0 8.8-4 8.8-8.8v-163c0-4.9-4-8.8-8.8-8.8h-191.2c-21.1 0-38.3 17.1-38.3 38.3v133.5c0 4.9 4 8.8 8.8 8.8z" fill="#41479b"/><g fill="#f5f5f5"><path d="m24.8 108.5 2 5.9h6.2c.8 0 1.1 1 .5 1.5l-5 3.7 1.9 5.9c.2.8-.6 1.4-1.3.9l-5-3.6-5 3.6c-.7.5-1.5-.2-1.3-.9l1.9-5.9-5-3.7c-.6-.5-.3-1.5.5-1.5h6.2l2-5.9c.1-.7 1.1-.7 1.4 0z"/><path d="m24.8 139.2 2 5.9h6.2c.8 0 1.1 1 .5 1.5l-5 3.7 1.9 5.9c.2.8-.6 1.4-1.3.9l-5-3.6-5 3.6c-.7.5-1.5-.2-1.3-.9l1.9-5.9-5-3.7c-.6-.5-.3-1.5.5-1.5h6.2l2-5.9c.1-.8 1.1-.8 1.4 0z"/><path d="m24.8 169.8 2 5.9h6.2c.8 0 1.1 1 .5 1.5l-5 3.7 1.9 5.9c.2.8-.6 1.4-1.3.9l-5-3.6-5 3.6c-.7.5-1.5-.2-1.3-.9l1.9-5.9-5-3.7c-.6-.5-.3-1.5.5-1.5h6.2l2-5.9c.1-.7 1.1-.7 1.4 0z"/><path d="m24.8 200.5 2 5.9h6.2c.8 0 1.1 1 .5 1.5l-5 3.7 1.9 5.9c.2.8-.6 1.4-1.3.9l-5-3.6-5 3.6c-.7.5-1.5-.2-1.3-.9l1.9-5.9-5-3.7c-.6-.5-.3-1.5.5-1.5h6.2l2-5.9c.1-.8 1.1-.8 1.4 0z"/><path d="m24.8 231.2 2 5.9h6.2c.8 0 1.1 1 .5 1.5l-5 3.7 1.9 5.9c.2.8-.6 1.4-1.3.9l-5-3.6-5 3.6c-.7.5-1.5-.2-1.3-.9l1.9-5.9-5-3.7c-.6-.5-.3-1.5.5-1.5h6.2l2-5.9c.1-.8 1.1-.8 1.4 0z"/><path d="m48.6 123.6 2 5.9h6.2c.8 0 1.1 1 .5 1.5l-5 3.7 1.9 5.9c.2.8-.6 1.4-1.3.9l-5-3.6-5 3.6c-.7.5-1.5-.2-1.3-.9l1.9-5.9-5-3.7c-.6-.5-.3-1.5.5-1.5h6.2l2-5.9c.1-.8 1.1-.8 1.4 0z"/><path d="m48.6 154.2 2 5.9h6.2c.8 0 1.1 1 .5 1.5l-5 3.7 1.9 5.9c.2.8-.6 1.4-1.3.9l-5-3.6-5 3.6c-.7.5-1.5-.2-1.3-.9l1.9-5.9-5-3.7c-.6-.5-.3-1.5.5-1.5h6.2l2-5.9c.1-.7 1.1-.7 1.4 0z"/><path d="m48.6 184.9 2 5.9h6.2c.8 0 1.1 1 .5 1.5l-5 3.7 1.9 5.9c.2.8-.6 1.4-1.3.9l-5-3.6-5 3.6c-.7.5-1.5-.2-1.3-.9l1.9-5.9-5-3.7c-.6-.5-.3-1.5.5-1.5h6.2l2-5.9c.1-.8 1.1-.8 1.4 0z"/><path d="m48.6 215.5 2 5.9h6.2c.8 0 1.1 1 .5 1.5l-5 3.7 1.9 5.9c.2.8-.6 1.4-1.3.9l-5-3.6-5 3.6c-.7.5-1.5-.2-1.3-.9l1.9-5.9-5-3.7c-.6-.5-.3-1.5.5-1.5h6.2l2-5.9c.1-.7 1.1-.7 1.4 0z"/><path d="m72.4 108.5 2 5.9h6.2c.8 0 1.1 1 .5 1.5l-5 3.7 1.9 5.9c.2.8-.6 1.4-1.3.9l-5-3.6-5 3.6c-.7.5-1.5-.2-1.3-.9l1.9-5.9-5-3.7c-.6-.5-.3-1.5.5-1.5h6.2l2-5.9c0-.7 1.1-.7 1.4 0z"/><path d="m72.4 139.2 2 5.9h6.2c.8 0 1.1 1 .5 1.5l-5 3.7 1.9 5.9c.2.8-.6 1.4-1.3.9l-5-3.6-5 3.6c-.7.5-1.5-.2-1.3-.9l1.9-5.9-5-3.7c-.6-.5-.3-1.5.5-1.5h6.2l2-5.9c0-.8 1.1-.8 1.4 0z"/><path d="m72.4 169.8 2 5.9h6.2c.8 0 1.1 1 .5 1.5l-5 3.7 1.9 5.9c.2.8-.6 1.4-1.3.9l-5-3.6-5 3.6c-.7.5-1.5-.2-1.3-.9l1.9-5.9-5-3.7c-.6-.5-.3-1.5.5-1.5h6.2l2-5.9c0-.7 1.1-.7 1.4 0z"/><path d="m72.4 200.5 2 5.9h6.2c.8 0 1.1 1 .5 1.5l-5 3.7 1.9 5.9c.2.8-.6 1.4-1.3.9l-5-3.6-5 3.6c-.7.5-1.5-.2-1.3-.9l1.9-5.9-5-3.7c-.6-.5-.3-1.5.5-1.5h6.2l2-5.9c0-.8 1.1-.8 1.4 0z"/><path d="m72.4 231.2 2 5.9h6.2c.8 0 1.1 1 .5 1.5l-5 3.7 1.9 5.9c.2.8-.6 1.4-1.3.9l-5-3.6-5 3.6c-.7.5-1.5-.2-1.3-.9l1.9-5.9-5-3.7c-.6-.5-.3-1.5.5-1.5h6.2l2-5.9c0-.8 1.1-.8 1.4 0z"/><path d="m96.2 123.6 2 5.9h6.2c.8 0 1.1 1 .5 1.5l-5 3.7 1.9 5.9c.2.8-.6 1.4-1.3.9l-5-3.6-5 3.6c-.7.5-1.5-.2-1.3-.9l1.9-5.9-5-3.7c-.6-.5-.3-1.5.5-1.5h6.2l2-5.9c0-.8 1.1-.8 1.4 0z"/><path d="m96.2 154.2 2 5.9h6.2c.8 0 1.1 1 .5 1.5l-5 3.7 1.9 5.9c.2.8-.6 1.4-1.3.9l-5-3.6-5 3.6c-.7.5-1.5-.2-1.3-.9l1.9-5.9-5-3.7c-.6-.5-.3-1.5.5-1.5h6.2l2-5.9c0-.7 1.1-.7 1.4 0z"/><path d="m96.2 184.9 2 5.9h6.2c.8 0 1.1 1 .5 1.5l-5 3.7 1.9 5.9c.2.8-.6 1.4-1.3.9l-5-3.6-5 3.6c-.7.5-1.5-.2-1.3-.9l1.9-5.9-5-3.7c-.6-.5-.3-1.5.5-1.5h6.2l2-5.9c0-.8 1.1-.8 1.4 0z"/><path d="m96.2 215.5 2 5.9h6.2c.8 0 1.1 1 .5 1.5l-5 3.7 1.9 5.9c.2.8-.6 1.4-1.3.9l-5-3.6-5 3.6c-.7.5-1.5-.2-1.3-.9l1.9-5.9-5-3.7c-.6-.5-.3-1.5.5-1.5h6.2l2-5.9c0-.7 1.1-.7 1.4 0z"/><path d="m120 108.5 2 5.9h6.2c.8 0 1.1 1 .5 1.5l-5 3.7 1.9 5.9c.2.8-.6 1.4-1.3.9l-5-3.6-5 3.6c-.7.5-1.5-.2-1.3-.9l1.9-5.9-5-3.7c-.6-.5-.3-1.5.5-1.5h6.2l2-5.9c0-.7 1.1-.7 1.4 0z"/><path d="m120 139.2 2 5.9h6.2c.8 0 1.1 1 .5 1.5l-5 3.7 1.9 5.9c.2.8-.6 1.4-1.3.9l-5-3.6-5 3.6c-.7.5-1.5-.2-1.3-.9l1.9-5.9-5-3.7c-.6-.5-.3-1.5.5-1.5h6.2l2-5.9c0-.8 1.1-.8 1.4 0z"/><path d="m120 169.8 2 5.9h6.2c.8 0 1.1 1 .5 1.5l-5 3.7 1.9 5.9c.2.8-.6 1.4-1.3.9l-5-3.6-5 3.6c-.7.5-1.5-.2-1.3-.9l1.9-5.9-5-3.7c-.6-.5-.3-1.5.5-1.5h6.2l2-5.9c0-.7 1.1-.7 1.4 0z"/><path d="m120 200.5 2 5.9h6.2c.8 0 1.1 1 .5 1.5l-5 3.7 1.9 5.9c.2.8-.6 1.4-1.3.9l-5-3.6-5 3.6c-.7.5-1.5-.2-1.3-.9l1.9-5.9-5-3.7c-.6-.5-.3-1.5.5-1.5h6.2l2-5.9c0-.8 1.1-.8 1.4 0z"/><path d="m120 231.2 2 5.9h6.2c.8 0 1.1 1 .5 1.5l-5 3.7 1.9 5.9c.2.8-.6 1.4-1.3.9l-5-3.6-5 3.6c-.7.5-1.5-.2-1.3-.9l1.9-5.9-5-3.7c-.6-.5-.3-1.5.5-1.5h6.2l2-5.9c0-.8 1.1-.8 1.4 0z"/><path d="m143.8 123.6 2 5.9h6.2c.8 0 1.1 1 .5 1.5l-5 3.7 1.9 5.9c.2.8-.6 1.4-1.3.9l-5-3.6-5 3.6c-.7.5-1.5-.2-1.3-.9l1.9-5.9-5-3.7c-.6-.5-.3-1.5.5-1.5h6.2l2-5.9c0-.8 1.1-.8 1.4 0z"/><path d="m143.8 154.2 2 5.9h6.2c.8 0 1.1 1 .5 1.5l-5 3.7 1.9 5.9c.2.8-.6 1.4-1.3.9l-5-3.6-5 3.6c-.7.5-1.5-.2-1.3-.9l1.9-5.9-5-3.7c-.6-.5-.3-1.5.5-1.5h6.2l2-5.9c0-.7 1.1-.7 1.4 0z"/><path d="m143.8 184.9 2 5.9h6.2c.8 0 1.1 1 .5 1.5l-5 3.7 1.9 5.9c.2.8-.6 1.4-1.3.9l-5-3.6-5 3.6c-.7.5-1.5-.2-1.3-.9l1.9-5.9-5-3.7c-.6-.5-.3-1.5.5-1.5h6.2l2-5.9c0-.8 1.1-.8 1.4 0z"/><path d="m143.8 215.5 2 5.9h6.2c.8 0 1.1 1 .5 1.5l-5 3.7 1.9 5.9c.2.8-.6 1.4-1.3.9l-5-3.6-5 3.6c-.7.5-1.5-.2-1.3-.9l1.9-5.9-5-3.7c-.6-.5-.3-1.5.5-1.5h6.2l2-5.9c0-.7 1.1-.7 1.4 0z"/><path d="m167.5 108.5 2 5.9h6.2c.8 0 1.1 1 .5 1.5l-5 3.7 1.9 5.9c.2.8-.6 1.4-1.3.9l-5-3.6-5 3.6c-.7.5-1.5-.2-1.3-.9l1.9-5.9-5-3.7c-.6-.5-.3-1.5.5-1.5h6.2l2-5.9c.1-.7 1.2-.7 1.4 0z"/><path d="m167.5 139.2 2 5.9h6.2c.8 0 1.1 1 .5 1.5l-5 3.7 1.9 5.9c.2.8-.6 1.4-1.3.9l-5-3.6-5 3.6c-.7.5-1.5-.2-1.3-.9l1.9-5.9-5-3.7c-.6-.5-.3-1.5.5-1.5h6.2l2-5.9c.1-.8 1.2-.8 1.4 0z"/><path d="m167.5 169.8 2 5.9h6.2c.8 0 1.1 1 .5 1.5l-5 3.7 1.9 5.9c.2.8-.6 1.4-1.3.9l-5-3.6-5 3.6c-.7.5-1.5-.2-1.3-.9l1.9-5.9-5-3.7c-.6-.5-.3-1.5.5-1.5h6.2l2-5.9c.1-.7 1.2-.7 1.4 0z"/><path d="m167.5 200.5 2 5.9h6.2c.8 0 1.1 1 .5 1.5l-5 3.7 1.9 5.9c.2.8-.6 1.4-1.3.9l-5-3.6-5 3.6c-.7.5-1.5-.2-1.3-.9l1.9-5.9-5-3.7c-.6-.5-.3-1.5.5-1.5h6.2l2-5.9c.1-.8 1.2-.8 1.4 0z"/><path d="m167.5 231.2 2 5.9h6.2c.8 0 1.1 1 .5 1.5l-5 3.7 1.9 5.9c.2.8-.6 1.4-1.3.9l-5-3.6-5 3.6c-.7.5-1.5-.2-1.3-.9l1.9-5.9-5-3.7c-.6-.5-.3-1.5.5-1.5h6.2l2-5.9c.1-.8 1.2-.8 1.4 0z"/><path d="m191.3 123.6 2 5.9h6.2c.8 0 1.1 1 .5 1.5l-5 3.7 1.9 5.9c.2.8-.6 1.4-1.3.9l-5-3.6-5 3.6c-.7.5-1.5-.2-1.3-.9l1.9-5.9-5-3.7c-.6-.5-.3-1.5.5-1.5h6.2l2-5.9c.1-.8 1.2-.8 1.4 0z"/><path d="m191.3 154.2 2 5.9h6.2c.8 0 1.1 1 .5 1.5l-5 3.7 1.9 5.9c.2.8-.6 1.4-1.3.9l-5-3.6-5 3.6c-.7.5-1.5-.2-1.3-.9l1.9-5.9-5-3.7c-.6-.5-.3-1.5.5-1.5h6.2l2-5.9c.1-.7 1.2-.7 1.4 0z"/><path d="m191.3 184.9 2 5.9h6.2c.8 0 1.1 1 .5 1.5l-5 3.7 1.9 5.9c.2.8-.6 1.4-1.3.9l-5-3.6-5 3.6c-.7.5-1.5-.2-1.3-.9l1.9-5.9-5-3.7c-.6-.5-.3-1.5.5-1.5h6.2l2-5.9c.1-.8 1.2-.8 1.4 0z"/><path d="m191.3 215.5 2 5.9h6.2c.8 0 1.1 1 .5 1.5l-5 3.7 1.9 5.9c.2.8-.6 1.4-1.3.9l-5-3.6-5 3.6c-.7.5-1.5-.2-1.3-.9l1.9-5.9-5-3.7c-.6-.5-.3-1.5.5-1.5h6.2l2-5.9c.1-.7 1.2-.7 1.4 0z"/><path d="m215.1 108.5 2 5.9h6.2c.8 0 1.1 1 .5 1.5l-5 3.7 1.9 5.9c.2.8-.6 1.4-1.3.9l-5-3.6-5 3.6c-.7.5-1.5-.2-1.3-.9l1.9-5.9-5-3.7c-.6-.5-.3-1.5.5-1.5h6.2l2-5.9c.1-.7 1.2-.7 1.4 0z"/><path d="m215.1 139.2 2 5.9h6.2c.8 0 1.1 1 .5 1.5l-5 3.7 1.9 5.9c.2.8-.6 1.4-1.3.9l-5-3.6-5 3.6c-.7.5-1.5-.2-1.3-.9l1.9-5.9-5-3.7c-.6-.5-.3-1.5.5-1.5h6.2l2-5.9c.1-.8 1.2-.8 1.4 0z"/><path d="m215.1 169.8 2 5.9h6.2c.8 0 1.1 1 .5 1.5l-5 3.7 1.9 5.9c.2.8-.6 1.4-1.3.9l-5-3.6-5 3.6c-.7.5-1.5-.2-1.3-.9l1.9-5.9-5-3.7c-.6-.5-.3-1.5.5-1.5h6.2l2-5.9c.1-.7 1.2-.7 1.4 0z"/><path d="m215.1 200.5 2 5.9h6.2c.8 0 1.1 1 .5 1.5l-5 3.7 1.9 5.9c.2.8-.6 1.4-1.3.9l-5-3.6-5 3.6c-.7.5-1.5-.2-1.3-.9l1.9-5.9-5-3.7c-.6-.5-.3-1.5.5-1.5h6.2l2-5.9c.1-.8 1.2-.8 1.4 0z"/><path d="m215.1 231.2 2 5.9h6.2c.8 0 1.1 1 .5 1.5l-5 3.7 1.9 5.9c.2.8-.6 1.4-1.3.9l-5-3.6-5 3.6c-.7.5-1.5-.2-1.3-.9l1.9-5.9-5-3.7c-.6-.5-.3-1.5.5-1.5h6.2l2-5.9c.1-.8 1.2-.8 1.4 0z"/></g><image height="823" overflow="visible" transform="matrix(.24 0 0 .24 284.24 156.964)" width="823" xlink:href="A8041FE49EFEF949.png"/></svg>